<?xml version="1.0" encoding="UTF-8" standalone="no"?>
<!DOCTYPE svg PUBLIC "-//W3C//DTD SVG 1.1//EN" "http://www.w3.org/Graphics/SVG/1.1/DTD/svg11.dtd">
<svg width="100%" height="100%" viewBox="0 0 208 208" version="1.1" xmlns="http://www.w3.org/2000/svg" xmlns:xlink="http://www.w3.org/1999/xlink" xml:space="preserve" xmlns:serif="http://www.serif.com/" style="fill-rule:evenodd;clip-rule:evenodd;stroke-linejoin:round;stroke-miterlimit:2;">
    <g transform="matrix(0.333314,0,0,0.333314,-1092.32,-217.84)">
        <rect x="3277.16" y="653.559" width="622.978" height="622.978" style="fill:none;"/>
        <clipPath id="_clip1">
            <rect x="3277.16" y="653.559" width="622.978" height="622.978"/>
        </clipPath>
        <g clip-path="url(#_clip1)">
            <g transform="matrix(1.7515,-1.7515,0.904197,0.904197,-3374.72,6089.81)">
                <rect x="3260.8" y="648.651" width="374.069" height="11.502" style="fill:rgb(0, 76, 151);"/>
            </g>
            <g transform="matrix(1.7515,-1.7515,0.904197,0.904197,-3041.93,6422.6)">
                <rect x="3260.8" y="648.651" width="374.069" height="11.502" style="fill:rgb(0, 76, 151);"/>
            </g>
            <g transform="matrix(1.7515,-1.7515,0.904197,0.904197,-3208.32,6256.21)">
                <rect x="3260.8" y="648.651" width="374.069" height="11.502" style="fill:rgb(0, 76, 151);"/>
            </g>
            <g transform="matrix(1.7515,-1.7515,0.904197,0.904197,-2875.53,6589)">
                <rect x="3260.8" y="648.651" width="374.069" height="11.502" style="fill:rgb(0, 76, 151);"/>
            </g>
            <g transform="matrix(1.7515,-1.7515,0.904197,0.904197,-3291.52,6173.01)">
                <rect x="3260.8" y="648.651" width="374.069" height="11.502" style="fill:rgb(0, 76, 151);"/>
            </g>
            <g transform="matrix(1.7515,-1.7515,0.904197,0.904197,-2958.73,6505.8)">
                <rect x="3260.8" y="648.651" width="374.069" height="11.502" style="fill:rgb(0, 76, 151);"/>
            </g>
            <g transform="matrix(1.7515,-1.7515,0.904197,0.904197,-3125.13,6339.41)">
                <rect x="3260.8" y="648.651" width="374.069" height="11.502" style="fill:rgb(0, 76, 151);"/>
            </g>
            <g transform="matrix(1.7515,-1.7515,0.904197,0.904197,-2792.33,6672.2)">
                <rect x="3260.8" y="648.651" width="374.069" height="11.502" style="fill:rgb(0, 76, 151);"/>
            </g>
            <g transform="matrix(1.7515,-1.7515,0.904197,0.904197,-3333.12,6131.41)">
                <rect x="3260.8" y="648.651" width="374.069" height="11.502" style="fill:rgb(0, 76, 151);"/>
            </g>
            <g transform="matrix(1.7515,-1.7515,0.904197,0.904197,-3000.33,6464.2)">
                <rect x="3260.8" y="648.651" width="374.069" height="11.502" style="fill:rgb(0, 76, 151);"/>
            </g>
            <g transform="matrix(1.7515,-1.7515,0.904197,0.904197,-3166.72,6297.81)">
                <rect x="3260.8" y="648.651" width="374.069" height="11.502" style="fill:rgb(0, 76, 151);"/>
            </g>
            <g transform="matrix(1.7515,-1.7515,0.904197,0.904197,-2833.93,6630.6)">
                <rect x="3260.8" y="648.651" width="374.069" height="11.502" style="fill:rgb(0, 76, 151);"/>
            </g>
            <g transform="matrix(1.7515,-1.7515,0.904197,0.904197,-3249.92,6214.61)">
                <rect x="3260.8" y="648.651" width="374.069" height="11.502" style="fill:rgb(0, 76, 151);"/>
            </g>
            <g transform="matrix(1.7515,-1.7515,0.904197,0.904197,-2917.13,6547.4)">
                <rect x="3260.8" y="648.651" width="374.069" height="11.502" style="fill:rgb(0, 76, 151);"/>
            </g>
            <g transform="matrix(1.7515,-1.7515,0.904197,0.904197,-3083.53,6381)">
                <rect x="3260.8" y="648.651" width="374.069" height="11.502" style="fill:rgb(0, 76, 151);"/>
            </g>
            <g transform="matrix(1.7515,-1.7515,0.904197,0.904197,-2750.74,6713.79)">
                <rect x="3260.8" y="648.651" width="374.069" height="11.502" style="fill:rgb(0, 76, 151);"/>
            </g>
            <g transform="matrix(1.7515,-1.7515,0.904197,0.904197,-3353.92,6110.61)">
                <rect x="3260.8" y="648.651" width="374.069" height="11.502" style="fill:rgb(0, 76, 151);"/>
            </g>
            <g transform="matrix(1.7515,-1.7515,0.904197,0.904197,-3021.13,6443.4)">
                <rect x="3260.8" y="648.651" width="374.069" height="11.502" style="fill:rgb(0, 76, 151);"/>
            </g>
            <g transform="matrix(1.7515,-1.7515,0.904197,0.904197,-3187.52,6277.01)">
                <rect x="3260.8" y="648.651" width="374.069" height="11.502" style="fill:rgb(0, 76, 151);"/>
            </g>
            <g transform="matrix(1.7515,-1.7515,0.904197,0.904197,-2854.73,6609.8)">
                <rect x="3260.8" y="648.651" width="374.069" height="11.502" style="fill:rgb(0, 76, 151);"/>
            </g>
            <g transform="matrix(1.7515,-1.7515,0.904197,0.904197,-3270.72,6193.81)">
                <rect x="3260.8" y="648.651" width="374.069" height="11.502" style="fill:rgb(0, 76, 151);"/>
            </g>
            <g transform="matrix(1.7515,-1.7515,0.904197,0.904197,-2937.93,6526.6)">
                <rect x="3260.8" y="648.651" width="374.069" height="11.502" style="fill:rgb(0, 76, 151);"/>
            </g>
            <g transform="matrix(1.7515,-1.7515,0.904197,0.904197,-3104.33,6360.21)">
                <rect x="3260.8" y="648.651" width="374.069" height="11.502" style="fill:rgb(0, 76, 151);"/>
            </g>
            <g transform="matrix(1.7515,-1.7515,0.904197,0.904197,-2771.54,6693)">
                <rect x="3260.8" y="648.651" width="374.069" height="11.502" style="fill:rgb(0, 76, 151);"/>
            </g>
            <g transform="matrix(1.7515,-1.7515,0.904197,0.904197,-3312.32,6152.21)">
                <rect x="3260.8" y="648.651" width="374.069" height="11.502" style="fill:rgb(0, 76, 151);"/>
            </g>
            <g transform="matrix(1.7515,-1.7515,0.904197,0.904197,-2979.53,6485)">
                <rect x="3260.8" y="648.651" width="374.069" height="11.502" style="fill:rgb(0, 76, 151);"/>
            </g>
            <g transform="matrix(1.7515,-1.7515,0.904197,0.904197,-3145.92,6318.61)">
                <rect x="3260.8" y="648.651" width="374.069" height="11.502" style="fill:rgb(0, 76, 151);"/>
            </g>
            <g transform="matrix(1.7515,-1.7515,0.904197,0.904197,-2813.13,6651.4)">
                <rect x="3260.8" y="648.651" width="374.069" height="11.502" style="fill:rgb(0, 76, 151);"/>
            </g>
            <g transform="matrix(1.7515,-1.7515,0.904197,0.904197,-3229.12,6235.41)">
                <rect x="3260.8" y="648.651" width="374.069" height="11.502" style="fill:rgb(0, 76, 151);"/>
            </g>
            <g transform="matrix(1.7515,-1.7515,0.904197,0.904197,-2896.33,6568.2)">
                <rect x="3260.8" y="648.651" width="374.069" height="11.502" style="fill:rgb(0, 76, 151);"/>
            </g>
            <g transform="matrix(1.7515,-1.7515,0.904197,0.904197,-3062.73,6401.8)">
                <rect x="3260.8" y="648.651" width="374.069" height="11.502" style="fill:rgb(0, 76, 151);"/>
            </g>
            <g transform="matrix(1.7515,-1.7515,0.904197,0.904197,-2729.94,6734.59)">
                <rect x="3260.8" y="648.651" width="374.069" height="11.502" style="fill:rgb(0, 76, 151);"/>
            </g>
        </g>
    </g>
</svg>
