<?xml version="1.0" encoding="UTF-8" standalone="no"?>
<!DOCTYPE svg PUBLIC "-//W3C//DTD SVG 1.1//EN" "http://www.w3.org/Graphics/SVG/1.1/DTD/svg11.dtd">
<svg width="100%" height="100%" viewBox="0 0 100 100" version="1.1" xmlns="http://www.w3.org/2000/svg" xmlns:xlink="http://www.w3.org/1999/xlink" xml:space="preserve" xmlns:serif="http://www.serif.com/" style="fill-rule:evenodd;clip-rule:evenodd;stroke-linejoin:round;stroke-miterlimit:2;">
    <path d="M80.1,82.1C76.4,86.5 68.3,88.9 61.5,87.6C56.4,86.6 49.7,82.4 44.5,78.9C35.9,73.1 28.1,63.7 23.1,53.3L22.7,52.5C20.5,47.9 18,42.7 17,37.5C16.3,33.2 16.5,26.9 18.7,22.3C20.3,19 25.7,12.4 31.2,12.1C31.8,12.1 34,12.3 35.8,12.6C37.3,12.9 38.4,13.3 39.1,13.8C41.2,15.2 41.8,18.4 42.5,22.4C42.6,23 42.7,23.6 42.8,24L44,29.4C44.4,31.2 44.8,32.9 44.5,34.3C44,36.9 42.1,38.3 40.8,39.3L40.1,39.8C39.8,40.1 39.4,40.3 39,40.6C38.4,41 37.4,41.8 37.2,42.2C37,43 38.5,45.8 39.3,47.1L40.1,48.6C43.3,54.8 47.3,59.5 53.1,63.7C54.9,65 55.7,65.3 56,65.4C56.5,65.4 58,64 58.5,63.5C58.9,63.2 59.2,62.9 59.5,62.6C59.7,62.4 59.9,62.2 60.2,61.9C61.7,60.4 63.8,58.3 66.2,58.4L66.8,58.5C68.2,58.8 69.6,59.7 71.4,61L71.8,61.3C74.3,63.1 75.7,64.1 77.9,65.8L79.5,67C81.5,68.5 83.1,69.8 83.5,71.5C84.3,74.8 81.4,80.5 80.1,82.1Z" style="fill:rgb(254,73,44);fill-rule:nonzero;"/>
</svg>
