<?xml version="1.0" encoding="UTF-8" standalone="no"?>
<!DOCTYPE svg PUBLIC "-//W3C//DTD SVG 1.1//EN" "http://www.w3.org/Graphics/SVG/1.1/DTD/svg11.dtd">
<svg width="100%" height="100%" viewBox="0 0 100 100" version="1.1" xmlns="http://www.w3.org/2000/svg" xmlns:xlink="http://www.w3.org/1999/xlink" xml:space="preserve" xmlns:serif="http://www.serif.com/" style="fill-rule:evenodd;clip-rule:evenodd;stroke-linejoin:round;stroke-miterlimit:2;">
    <path d="M6.9,73.6L6.9,26.4C6.9,26 6.9,25.6 7.1,25L42.8,58.7C44.8,60.6 47.2,61.5 50.1,61.5C53,61.5 55.4,60.6 57.4,58.7L93,25C93.1,25.5 93.1,25.9 93.1,26.4L93.1,73.6C93.1,75.4 92.4,76.9 91.1,78.2C89.8,79.4 88.2,80.1 86.3,80.1L13.7,80.1C11.8,80.1 10.2,79.5 8.9,78.2C7.5,76.9 6.9,75.3 6.9,73.6ZM11.7,20.3C12.4,20.1 13,20 13.7,20L86.4,20C87,20 87.6,20.1 88.3,20.3L52.4,54.1C51.7,54.7 50.9,55 50,55C49.1,55 48.3,54.7 47.6,54.1L11.7,20.3Z" style="fill:rgb(254,73,44);fill-rule:nonzero;"/>
</svg>
